<mxfile host="Electron" agent="Mozilla/5.0 (Windows NT 10.0; Win64; x64) AppleWebKit/537.36 (KHTML, like Gecko) draw.io/28.0.6 Chrome/138.0.7204.100 Electron/37.2.3 Safari/537.36" version="28.0.6">
  <diagram name="Page-1" id="XqT7qfgEEcVT0VGJYiyD">
    <mxGraphModel dx="1123" dy="737" grid="1" gridSize="10" guides="1" tooltips="1" connect="1" arrows="1" fold="1" page="1" pageScale="1" pageWidth="827" pageHeight="1169" math="0" shadow="0">
      <root>
        <mxCell id="0" />
        <mxCell id="1" parent="0" />
        <mxCell id="pi3PKj7bwA69O6RtweXy-2" value="" style="rounded=0;whiteSpace=wrap;html=1;dashed=1;fillColor=none;shadow=0;glass=0;" vertex="1" parent="1">
          <mxGeometry x="299" y="120" width="150" height="560" as="geometry" />
        </mxCell>
        <mxCell id="pi3PKj7bwA69O6RtweXy-3" value="&lt;h1 style=&quot;margin-top: 0px;&quot;&gt;&lt;span style=&quot;font-family: &amp;quot;Comic Sans MS&amp;quot;; background-color: transparent; color: light-dark(rgb(0, 0, 0), rgb(255, 255, 255)); font-weight: normal;&quot;&gt;&lt;font style=&quot;font-size: 44px;&quot;&gt;Data Flow (Data Lineage)&lt;/font&gt;&lt;/span&gt;&lt;/h1&gt;" style="text;html=1;whiteSpace=wrap;overflow=hidden;rounded=1;fillColor=none;strokeColor=default;align=center;" vertex="1" parent="1">
          <mxGeometry x="294" width="1076" height="70" as="geometry" />
        </mxCell>
        <mxCell id="pi3PKj7bwA69O6RtweXy-4" value="&lt;b&gt;&lt;font style=&quot;font-size: 18px;&quot;&gt;Sources&lt;/font&gt;&lt;/b&gt;" style="text;html=1;align=center;verticalAlign=middle;whiteSpace=wrap;rounded=0;fillColor=default;fillStyle=auto;" vertex="1" parent="1">
          <mxGeometry x="331.5" y="100" width="85" height="40" as="geometry" />
        </mxCell>
        <mxCell id="pi3PKj7bwA69O6RtweXy-6" value="" style="group" vertex="1" connectable="0" parent="1">
          <mxGeometry x="331.5" y="278" width="69" height="80" as="geometry" />
        </mxCell>
        <mxCell id="pi3PKj7bwA69O6RtweXy-7" value="" style="image;aspect=fixed;html=1;points=[];align=center;fontSize=12;image=img/lib/azure2/general/Folder_Blank.svg;" vertex="1" parent="pi3PKj7bwA69O6RtweXy-6">
          <mxGeometry width="69" height="56.00000000000001" as="geometry" />
        </mxCell>
        <mxCell id="pi3PKj7bwA69O6RtweXy-9" value="&lt;b&gt;&lt;font style=&quot;font-size: 14px;&quot;&gt;CRM&lt;/font&gt;&lt;/b&gt;" style="text;html=1;align=center;verticalAlign=middle;whiteSpace=wrap;rounded=0;" vertex="1" parent="pi3PKj7bwA69O6RtweXy-6">
          <mxGeometry y="50" width="60" height="30" as="geometry" />
        </mxCell>
        <mxCell id="pi3PKj7bwA69O6RtweXy-8" value="" style="sketch=0;html=1;aspect=fixed;strokeColor=none;shadow=0;fillColor=#3B8DF1;verticalAlign=top;labelPosition=center;verticalLabelPosition=bottom;shape=mxgraph.gcp2.files" vertex="1" parent="pi3PKj7bwA69O6RtweXy-6">
          <mxGeometry x="29" y="11.200000000000022" width="40" height="38.8" as="geometry" />
        </mxCell>
        <mxCell id="pi3PKj7bwA69O6RtweXy-10" value="" style="group" vertex="1" connectable="0" parent="1">
          <mxGeometry x="331.5" y="493" width="74" height="80" as="geometry" />
        </mxCell>
        <mxCell id="pi3PKj7bwA69O6RtweXy-11" value="" style="image;aspect=fixed;html=1;points=[];align=center;fontSize=12;image=img/lib/azure2/general/Folder_Blank.svg;" vertex="1" parent="pi3PKj7bwA69O6RtweXy-10">
          <mxGeometry width="69" height="56.00000000000001" as="geometry" />
        </mxCell>
        <mxCell id="pi3PKj7bwA69O6RtweXy-13" value="&lt;b&gt;&lt;font style=&quot;font-size: 14px;&quot;&gt;ERP&lt;/font&gt;&lt;/b&gt;" style="text;html=1;align=center;verticalAlign=middle;whiteSpace=wrap;rounded=0;" vertex="1" parent="pi3PKj7bwA69O6RtweXy-10">
          <mxGeometry y="50" width="60" height="30" as="geometry" />
        </mxCell>
        <mxCell id="pi3PKj7bwA69O6RtweXy-12" value="" style="sketch=0;html=1;aspect=fixed;strokeColor=none;shadow=0;fillColor=#3B8DF1;verticalAlign=top;labelPosition=center;verticalLabelPosition=bottom;shape=mxgraph.gcp2.files" vertex="1" parent="pi3PKj7bwA69O6RtweXy-10">
          <mxGeometry x="26.5" y="15.75" width="41.5" height="40.25" as="geometry" />
        </mxCell>
        <mxCell id="pi3PKj7bwA69O6RtweXy-1" value="" style="rounded=0;whiteSpace=wrap;html=1;dashed=1;container=0;" vertex="1" parent="1">
          <mxGeometry x="520" y="120" width="845" height="560" as="geometry" />
        </mxCell>
        <mxCell id="pi3PKj7bwA69O6RtweXy-31" value="&lt;b&gt;&lt;font style=&quot;font-size: 18px;&quot;&gt;Silver Layer&lt;/font&gt;&lt;/b&gt;" style="rounded=0;whiteSpace=wrap;html=1;fillColor=#eeeeee;strokeColor=#B3B3B3;container=0;" vertex="1" parent="1">
          <mxGeometry x="816" y="140" width="220" height="40" as="geometry" />
        </mxCell>
        <mxCell id="pi3PKj7bwA69O6RtweXy-33" value="" style="rounded=0;whiteSpace=wrap;html=1;fillColor=none;strokeColor=#B3B3B3;container=0;" vertex="1" parent="1">
          <mxGeometry x="816" y="190" width="220" height="480" as="geometry" />
        </mxCell>
        <mxCell id="pi3PKj7bwA69O6RtweXy-103" style="rounded=0;orthogonalLoop=1;jettySize=auto;html=1;entryX=0;entryY=0.5;entryDx=0;entryDy=0;shadow=0;jumpStyle=gap;strokeWidth=2;endArrow=classic;endFill=1;exitX=1;exitY=0.5;exitDx=0;exitDy=0;" edge="1" parent="1" source="pi3PKj7bwA69O6RtweXy-88" target="pi3PKj7bwA69O6RtweXy-100">
          <mxGeometry relative="1" as="geometry" />
        </mxCell>
        <mxCell id="pi3PKj7bwA69O6RtweXy-88" value="&lt;font style=&quot;font-size: 15px;&quot;&gt;crm_sales_details&lt;/font&gt;" style="rounded=1;whiteSpace=wrap;html=1;fillColor=#f5f5f5;strokeColor=#666666;fontColor=#333333;container=0;" vertex="1" parent="1">
          <mxGeometry x="855" y="223" width="155" height="40" as="geometry" />
        </mxCell>
        <mxCell id="pi3PKj7bwA69O6RtweXy-108" style="rounded=0;orthogonalLoop=1;jettySize=auto;html=1;entryX=0;entryY=0.5;entryDx=0;entryDy=0;strokeWidth=2;exitX=1;exitY=0.5;exitDx=0;exitDy=0;" edge="1" parent="1" source="pi3PKj7bwA69O6RtweXy-89" target="pi3PKj7bwA69O6RtweXy-102">
          <mxGeometry relative="1" as="geometry" />
        </mxCell>
        <mxCell id="pi3PKj7bwA69O6RtweXy-89" value="&lt;font style=&quot;font-size: 15px;&quot;&gt;erp_px_cat_g1v2&lt;/font&gt;" style="rounded=1;whiteSpace=wrap;html=1;fillColor=#f5f5f5;strokeColor=#666666;fontColor=#333333;container=0;" vertex="1" parent="1">
          <mxGeometry x="855" y="567.5" width="155" height="40" as="geometry" />
        </mxCell>
        <mxCell id="pi3PKj7bwA69O6RtweXy-107" style="rounded=0;orthogonalLoop=1;jettySize=auto;html=1;strokeWidth=2;exitX=1;exitY=0.5;exitDx=0;exitDy=0;" edge="1" parent="1" source="pi3PKj7bwA69O6RtweXy-90">
          <mxGeometry relative="1" as="geometry">
            <mxPoint x="1146" y="398" as="targetPoint" />
          </mxGeometry>
        </mxCell>
        <mxCell id="pi3PKj7bwA69O6RtweXy-90" value="&lt;font style=&quot;font-size: 15px;&quot;&gt;erp_locÃ§a101&lt;/font&gt;" style="rounded=1;whiteSpace=wrap;html=1;fillColor=#f5f5f5;strokeColor=#666666;fontColor=#333333;container=0;" vertex="1" parent="1">
          <mxGeometry x="855" y="503" width="155" height="40" as="geometry" />
        </mxCell>
        <mxCell id="pi3PKj7bwA69O6RtweXy-106" style="rounded=0;orthogonalLoop=1;jettySize=auto;html=1;entryX=0;entryY=0.5;entryDx=0;entryDy=0;strokeWidth=2;exitX=1;exitY=0.5;exitDx=0;exitDy=0;" edge="1" parent="1" source="pi3PKj7bwA69O6RtweXy-91" target="pi3PKj7bwA69O6RtweXy-101">
          <mxGeometry relative="1" as="geometry" />
        </mxCell>
        <mxCell id="pi3PKj7bwA69O6RtweXy-91" value="&lt;font style=&quot;font-size: 15px;&quot;&gt;erp_cust_az12&lt;/font&gt;" style="rounded=1;whiteSpace=wrap;html=1;fillColor=#f5f5f5;strokeColor=#666666;fontColor=#333333;container=0;" vertex="1" parent="1">
          <mxGeometry x="855" y="443" width="155" height="40" as="geometry" />
        </mxCell>
        <mxCell id="pi3PKj7bwA69O6RtweXy-105" style="rounded=0;orthogonalLoop=1;jettySize=auto;html=1;entryX=0;entryY=0.5;entryDx=0;entryDy=0;shadow=0;jumpStyle=gap;strokeWidth=2;exitX=1;exitY=0.5;exitDx=0;exitDy=0;" edge="1" parent="1" source="pi3PKj7bwA69O6RtweXy-92" target="pi3PKj7bwA69O6RtweXy-102">
          <mxGeometry relative="1" as="geometry" />
        </mxCell>
        <mxCell id="pi3PKj7bwA69O6RtweXy-92" value="&lt;font style=&quot;font-size: 15px;&quot;&gt;crm_prd_info&lt;/font&gt;" style="rounded=1;whiteSpace=wrap;html=1;fillColor=#f5f5f5;strokeColor=#666666;fontColor=#333333;container=0;" vertex="1" parent="1">
          <mxGeometry x="855" y="343" width="155" height="40" as="geometry" />
        </mxCell>
        <mxCell id="pi3PKj7bwA69O6RtweXy-104" style="rounded=0;orthogonalLoop=1;jettySize=auto;html=1;entryX=0;entryY=0.5;entryDx=0;entryDy=0;shadow=0;jumpStyle=gap;strokeWidth=2;exitX=1;exitY=0.5;exitDx=0;exitDy=0;" edge="1" parent="1" source="pi3PKj7bwA69O6RtweXy-93" target="pi3PKj7bwA69O6RtweXy-101">
          <mxGeometry relative="1" as="geometry" />
        </mxCell>
        <mxCell id="pi3PKj7bwA69O6RtweXy-93" value="&lt;font style=&quot;font-size: 15px;&quot;&gt;crm_cust_info&lt;/font&gt;" style="rounded=1;whiteSpace=wrap;html=1;fillColor=#f5f5f5;strokeColor=#666666;fontColor=#333333;container=0;" vertex="1" parent="1">
          <mxGeometry x="855" y="283" width="155" height="40" as="geometry" />
        </mxCell>
        <mxCell id="pi3PKj7bwA69O6RtweXy-94" style="edgeStyle=orthogonalEdgeStyle;rounded=0;orthogonalLoop=1;jettySize=auto;html=1;strokeWidth=2;" edge="1" parent="1" source="pi3PKj7bwA69O6RtweXy-52" target="pi3PKj7bwA69O6RtweXy-88">
          <mxGeometry relative="1" as="geometry" />
        </mxCell>
        <mxCell id="pi3PKj7bwA69O6RtweXy-95" style="edgeStyle=orthogonalEdgeStyle;rounded=0;orthogonalLoop=1;jettySize=auto;html=1;strokeWidth=2;" edge="1" parent="1" source="pi3PKj7bwA69O6RtweXy-53" target="pi3PKj7bwA69O6RtweXy-93">
          <mxGeometry relative="1" as="geometry" />
        </mxCell>
        <mxCell id="pi3PKj7bwA69O6RtweXy-96" style="edgeStyle=orthogonalEdgeStyle;rounded=0;orthogonalLoop=1;jettySize=auto;html=1;entryX=0;entryY=0.5;entryDx=0;entryDy=0;strokeWidth=2;" edge="1" parent="1" source="pi3PKj7bwA69O6RtweXy-55" target="pi3PKj7bwA69O6RtweXy-92">
          <mxGeometry relative="1" as="geometry" />
        </mxCell>
        <mxCell id="pi3PKj7bwA69O6RtweXy-97" style="edgeStyle=orthogonalEdgeStyle;rounded=0;orthogonalLoop=1;jettySize=auto;html=1;entryX=0;entryY=0.5;entryDx=0;entryDy=0;strokeWidth=2;" edge="1" parent="1" source="pi3PKj7bwA69O6RtweXy-60" target="pi3PKj7bwA69O6RtweXy-91">
          <mxGeometry relative="1" as="geometry" />
        </mxCell>
        <mxCell id="pi3PKj7bwA69O6RtweXy-98" style="edgeStyle=orthogonalEdgeStyle;rounded=0;orthogonalLoop=1;jettySize=auto;html=1;strokeWidth=2;" edge="1" parent="1" source="pi3PKj7bwA69O6RtweXy-61" target="pi3PKj7bwA69O6RtweXy-90">
          <mxGeometry relative="1" as="geometry" />
        </mxCell>
        <mxCell id="pi3PKj7bwA69O6RtweXy-99" style="edgeStyle=orthogonalEdgeStyle;rounded=0;orthogonalLoop=1;jettySize=auto;html=1;strokeWidth=2;" edge="1" parent="1" source="pi3PKj7bwA69O6RtweXy-62" target="pi3PKj7bwA69O6RtweXy-89">
          <mxGeometry relative="1" as="geometry" />
        </mxCell>
        <mxCell id="pi3PKj7bwA69O6RtweXy-5" value="&lt;b&gt;&lt;font style=&quot;font-size: 18px;&quot;&gt;DataWarehouse&lt;/font&gt;&lt;/b&gt;" style="text;html=1;align=center;verticalAlign=middle;whiteSpace=wrap;rounded=0;fillColor=default;fillStyle=auto;" vertex="1" parent="1">
          <mxGeometry x="876.25" y="100" width="132.5" height="40" as="geometry" />
        </mxCell>
        <mxCell id="pi3PKj7bwA69O6RtweXy-18" value="&lt;b&gt;&lt;font style=&quot;font-size: 18px;&quot;&gt;Bronze Layer&lt;/font&gt;&lt;/b&gt;" style="rounded=0;whiteSpace=wrap;html=1;fillColor=#ffe6cc;strokeColor=#d79b00;container=0;" vertex="1" parent="1">
          <mxGeometry x="536" y="135" width="205" height="40.585861678004534" as="geometry" />
        </mxCell>
        <mxCell id="pi3PKj7bwA69O6RtweXy-19" value="" style="rounded=0;whiteSpace=wrap;html=1;fillColor=none;strokeColor=#d79b00;container=0;" vertex="1" parent="1">
          <mxGeometry x="535" y="189.10907407407407" width="205" height="475.89092592592596" as="geometry" />
        </mxCell>
        <mxCell id="pi3PKj7bwA69O6RtweXy-52" value="&lt;font style=&quot;font-size: 15px;&quot;&gt;crm_sales_details&lt;/font&gt;" style="rounded=1;whiteSpace=wrap;html=1;fillColor=#ffe6cc;strokeColor=#d79b00;container=0;" vertex="1" parent="1">
          <mxGeometry x="561" y="223" width="155" height="40" as="geometry" />
        </mxCell>
        <mxCell id="pi3PKj7bwA69O6RtweXy-62" value="&lt;font style=&quot;font-size: 15px;&quot;&gt;erp_px_cat_g1v2&lt;/font&gt;" style="rounded=1;whiteSpace=wrap;html=1;fillColor=#ffe6cc;strokeColor=#d79b00;container=0;" vertex="1" parent="1">
          <mxGeometry x="561" y="567.5" width="155" height="40" as="geometry" />
        </mxCell>
        <mxCell id="pi3PKj7bwA69O6RtweXy-61" value="&lt;font style=&quot;font-size: 15px;&quot;&gt;erp_locÃ§a101&lt;/font&gt;" style="rounded=1;whiteSpace=wrap;html=1;fillColor=#ffe6cc;strokeColor=#d79b00;container=0;" vertex="1" parent="1">
          <mxGeometry x="561" y="503" width="155" height="40" as="geometry" />
        </mxCell>
        <mxCell id="pi3PKj7bwA69O6RtweXy-60" value="&lt;font style=&quot;font-size: 15px;&quot;&gt;erp_cust_az12&lt;/font&gt;" style="rounded=1;whiteSpace=wrap;html=1;fillColor=#ffe6cc;strokeColor=#d79b00;container=0;" vertex="1" parent="1">
          <mxGeometry x="561" y="443" width="155" height="40" as="geometry" />
        </mxCell>
        <mxCell id="pi3PKj7bwA69O6RtweXy-55" value="&lt;font style=&quot;font-size: 15px;&quot;&gt;crm_prd_info&lt;/font&gt;" style="rounded=1;whiteSpace=wrap;html=1;fillColor=#ffe6cc;strokeColor=#d79b00;container=0;" vertex="1" parent="1">
          <mxGeometry x="561" y="343" width="155" height="40" as="geometry" />
        </mxCell>
        <mxCell id="pi3PKj7bwA69O6RtweXy-53" value="&lt;font style=&quot;font-size: 15px;&quot;&gt;crm_cust_info&lt;/font&gt;" style="rounded=1;whiteSpace=wrap;html=1;fillColor=#ffe6cc;strokeColor=#d79b00;container=0;" vertex="1" parent="1">
          <mxGeometry x="561" y="283" width="155" height="40" as="geometry" />
        </mxCell>
        <mxCell id="pi3PKj7bwA69O6RtweXy-25" value="" style="group;fillColor=none;strokeColor=#FFF2CC;container=0;" vertex="1" connectable="0" parent="1">
          <mxGeometry x="1116" y="186.92307692307693" width="220" height="480" as="geometry" />
        </mxCell>
        <mxCell id="pi3PKj7bwA69O6RtweXy-26" value="&lt;b&gt;&lt;font style=&quot;font-size: 18px;&quot;&gt;Gold Layer&lt;/font&gt;&lt;/b&gt;" style="rounded=0;whiteSpace=wrap;html=1;fillColor=#fff2cc;strokeColor=#FFF5B5;container=0;" vertex="1" parent="1">
          <mxGeometry x="1116" y="140.76923076923077" width="220" height="36.92307692307693" as="geometry" />
        </mxCell>
        <mxCell id="pi3PKj7bwA69O6RtweXy-102" value="&lt;font style=&quot;font-size: 15px;&quot;&gt;dim_products&lt;/font&gt;&lt;div&gt;&lt;font style=&quot;font-size: 15px;&quot;&gt;&lt;br&gt;&lt;/font&gt;&lt;/div&gt;" style="rounded=1;whiteSpace=wrap;html=1;fillColor=#fff2cc;strokeColor=#d6b656;container=0;" vertex="1" parent="1">
          <mxGeometry x="1148.5" y="458" width="155" height="40" as="geometry" />
        </mxCell>
        <mxCell id="pi3PKj7bwA69O6RtweXy-100" value="&lt;font style=&quot;font-size: 15px;&quot;&gt;fact_sales&lt;/font&gt;" style="rounded=1;whiteSpace=wrap;html=1;fillColor=#fff2cc;strokeColor=#d6b656;container=0;" vertex="1" parent="1">
          <mxGeometry x="1148.5" y="263" width="155" height="40" as="geometry" />
        </mxCell>
        <mxCell id="pi3PKj7bwA69O6RtweXy-101" value="&lt;font style=&quot;font-size: 15px;&quot;&gt;dim_customers&lt;/font&gt;" style="rounded=1;whiteSpace=wrap;html=1;fillColor=#fff2cc;strokeColor=#d6b656;container=0;" vertex="1" parent="1">
          <mxGeometry x="1148.5" y="378" width="155" height="40" as="geometry" />
        </mxCell>
        <mxCell id="pi3PKj7bwA69O6RtweXy-81" style="edgeStyle=orthogonalEdgeStyle;rounded=0;orthogonalLoop=1;jettySize=auto;html=1;entryX=0;entryY=0.5;entryDx=0;entryDy=0;strokeWidth=2;" edge="1" parent="1" source="pi3PKj7bwA69O6RtweXy-7" target="pi3PKj7bwA69O6RtweXy-52">
          <mxGeometry relative="1" as="geometry" />
        </mxCell>
        <mxCell id="pi3PKj7bwA69O6RtweXy-71" style="edgeStyle=orthogonalEdgeStyle;rounded=0;orthogonalLoop=1;jettySize=auto;html=1;entryX=0;entryY=0.5;entryDx=0;entryDy=0;strokeWidth=2;" edge="1" parent="1" source="pi3PKj7bwA69O6RtweXy-7" target="pi3PKj7bwA69O6RtweXy-53">
          <mxGeometry relative="1" as="geometry">
            <Array as="points">
              <mxPoint x="539" y="306" />
            </Array>
          </mxGeometry>
        </mxCell>
        <mxCell id="pi3PKj7bwA69O6RtweXy-72" style="edgeStyle=orthogonalEdgeStyle;rounded=0;orthogonalLoop=1;jettySize=auto;html=1;entryX=0;entryY=0.5;entryDx=0;entryDy=0;strokeWidth=2;" edge="1" parent="1" source="pi3PKj7bwA69O6RtweXy-7" target="pi3PKj7bwA69O6RtweXy-55">
          <mxGeometry relative="1" as="geometry" />
        </mxCell>
        <mxCell id="pi3PKj7bwA69O6RtweXy-78" style="edgeStyle=orthogonalEdgeStyle;rounded=0;orthogonalLoop=1;jettySize=auto;html=1;entryX=0;entryY=0.5;entryDx=0;entryDy=0;strokeWidth=2;" edge="1" parent="1" source="pi3PKj7bwA69O6RtweXy-11" target="pi3PKj7bwA69O6RtweXy-62">
          <mxGeometry relative="1" as="geometry" />
        </mxCell>
        <mxCell id="pi3PKj7bwA69O6RtweXy-79" style="edgeStyle=orthogonalEdgeStyle;rounded=0;orthogonalLoop=1;jettySize=auto;html=1;entryX=0;entryY=0.5;entryDx=0;entryDy=0;strokeWidth=2;" edge="1" parent="1" source="pi3PKj7bwA69O6RtweXy-11" target="pi3PKj7bwA69O6RtweXy-60">
          <mxGeometry relative="1" as="geometry" />
        </mxCell>
        <mxCell id="pi3PKj7bwA69O6RtweXy-80" style="edgeStyle=orthogonalEdgeStyle;rounded=0;orthogonalLoop=1;jettySize=auto;html=1;strokeWidth=2;" edge="1" parent="1" source="pi3PKj7bwA69O6RtweXy-11" target="pi3PKj7bwA69O6RtweXy-61">
          <mxGeometry relative="1" as="geometry">
            <Array as="points">
              <mxPoint x="514" y="521" />
              <mxPoint x="514" y="521" />
            </Array>
          </mxGeometry>
        </mxCell>
      </root>
    </mxGraphModel>
  </diagram>
</mxfile>
